<svg xmlns="http://www.w3.org/2000/svg" viewBox="0 0 1536 1024"><rect width="1536" height="1024" fill="#9ba8b6"/><rect y="500" width="1536" height="524" fill="#71818d"/><rect y="720" width="1536" height="40" fill="#6f7b84"/><g fill="#42535f"><circle cx="130" cy="620" r="55"/><rect x="175" y="640" width="18" height="120" fill="#36434c"/><circle cx="310" cy="620" r="55"/><rect x="355" y="640" width="18" height="120" fill="#36434c"/><circle cx="490" cy="620" r="55"/><rect x="535" y="640" width="18" height="120" fill="#36434c"/><circle cx="670" cy="620" r="55"/><rect x="715" y="640" width="18" height="120" fill="#36434c"/><circle cx="850" cy="620" r="55"/><rect x="895" y="640" width="18" height="120" fill="#36434c"/><circle cx="1030" cy="620" r="55"/><rect x="1075" y="640" width="18" height="120" fill="#36434c"/><circle cx="1210" cy="620" r="55"/><rect x="1255" y="640" width="18" height="120" fill="#36434c"/><circle cx="1390" cy="620" r="55"/><rect x="1435" y="640" width="18" height="120" fill="#36434c"/></g><g stroke="#c8d8ea" stroke-opacity="0.5"><line x1="30" y1="0" x2="10" y2="100" /><line x1="100" y1="0" x2="80" y2="100" /><line x1="170" y1="0" x2="150" y2="100" /><line x1="240" y1="0" x2="220" y2="100" /><line x1="310" y1="0" x2="290" y2="100" /><line x1="380" y1="0" x2="360" y2="100" /><line x1="450" y1="0" x2="430" y2="100" /><line x1="520" y1="0" x2="500" y2="100" /><line x1="590" y1="0" x2="570" y2="100" /><line x1="660" y1="0" x2="640" y2="100" /><line x1="730" y1="0" x2="710" y2="100" /><line x1="800" y1="0" x2="780" y2="100" /><line x1="870" y1="0" x2="850" y2="100" /><line x1="940" y1="0" x2="920" y2="100" /><line x1="1010" y1="0" x2="990" y2="100" /><line x1="1080" y1="0" x2="1060" y2="100" /><line x1="1150" y1="0" x2="1130" y2="100" /><line x1="1220" y1="0" x2="1200" y2="100" /><line x1="1290" y1="0" x2="1270" y2="100" /><line x1="1360" y1="0" x2="1340" y2="100" /><line x1="1430" y1="0" x2="1410" y2="100" /><line x1="1500" y1="0" x2="1480" y2="100" /></g></svg>