<svg xmlns="http://www.w3.org/2000/svg" viewBox="0 0 1536 1024"><rect width="1536" height="1024" fill="#5a628a"/><rect y="500" width="1536" height="524" fill="#384253"/><rect y="0" width="1536" height="420" fill="#1e2246" opacity="0.55"/><g fill="#fdf2c6"><circle cx="20" cy="20" r="2"/><circle cx="68" cy="57" r="2"/><circle cx="116" cy="94" r="2"/><circle cx="164" cy="131" r="2"/><circle cx="212" cy="168" r="2"/><circle cx="260" cy="205" r="2"/><circle cx="308" cy="242" r="2"/><circle cx="356" cy="279" r="2"/><circle cx="404" cy="316" r="2"/><circle cx="452" cy="353" r="2"/><circle cx="500" cy="30" r="2"/><circle cx="548" cy="67" r="2"/><circle cx="596" cy="104" r="2"/><circle cx="644" cy="141" r="2"/><circle cx="692" cy="178" r="2"/><circle cx="740" cy="215" r="2"/><circle cx="788" cy="252" r="2"/><circle cx="836" cy="289" r="2"/><circle cx="884" cy="326" r="2"/><circle cx="932" cy="363" r="2"/><circle cx="980" cy="40" r="2"/><circle cx="1028" cy="77" r="2"/><circle cx="1076" cy="114" r="2"/><circle cx="1124" cy="151" r="2"/><circle cx="1172" cy="188" r="2"/><circle cx="1220" cy="225" r="2"/><circle cx="1268" cy="262" r="2"/><circle cx="1316" cy="299" r="2"/><circle cx="1364" cy="336" r="2"/><circle cx="1412" cy="373" r="2"/><circle cx="1460" cy="50" r="2"/><circle cx="1508" cy="87" r="2"/><circle cx="1556" cy="124" r="2"/><circle cx="1604" cy="161" r="2"/><circle cx="1652" cy="198" r="2"/><circle cx="1700" cy="235" r="2"/><circle cx="1748" cy="272" r="2"/><circle cx="1796" cy="309" r="2"/><circle cx="1844" cy="346" r="2"/><circle cx="1892" cy="23" r="2"/><circle cx="1940" cy="60" r="2"/><circle cx="1988" cy="97" r="2"/><circle cx="2036" cy="134" r="2"/><circle cx="2084" cy="171" r="2"/><circle cx="2132" cy="208" r="2"/><circle cx="2180" cy="245" r="2"/><circle cx="2228" cy="282" r="2"/><circle cx="2276" cy="319" r="2"/><circle cx="2324" cy="356" r="2"/><circle cx="2372" cy="33" r="2"/><circle cx="2420" cy="70" r="2"/><circle cx="2468" cy="107" r="2"/><circle cx="2516" cy="144" r="2"/><circle cx="2564" cy="181" r="2"/><circle cx="2612" cy="218" r="2"/><circle cx="2660" cy="255" r="2"/><circle cx="2708" cy="292" r="2"/><circle cx="2756" cy="329" r="2"/><circle cx="2804" cy="366" r="2"/><circle cx="2852" cy="43" r="2"/><circle cx="2900" cy="80" r="2"/><circle cx="2948" cy="117" r="2"/><circle cx="2996" cy="154" r="2"/><circle cx="3044" cy="191" r="2"/><circle cx="3092" cy="228" r="2"/><circle cx="3140" cy="265" r="2"/><circle cx="3188" cy="302" r="2"/><circle cx="3236" cy="339" r="2"/><circle cx="3284" cy="376" r="2"/><circle cx="3332" cy="53" r="2"/></g><g fill="#5e7a4b"><circle cx="130" cy="620" r="55"/><rect x="175" y="640" width="18" height="120" fill="#314126"/><circle cx="310" cy="620" r="55"/><rect x="355" y="640" width="18" height="120" fill="#314126"/><circle cx="490" cy="620" r="55"/><rect x="535" y="640" width="18" height="120" fill="#314126"/><circle cx="670" cy="620" r="55"/><rect x="715" y="640" width="18" height="120" fill="#314126"/><circle cx="850" cy="620" r="55"/><rect x="895" y="640" width="18" height="120" fill="#314126"/><circle cx="1030" cy="620" r="55"/><rect x="1075" y="640" width="18" height="120" fill="#314126"/><circle cx="1210" cy="620" r="55"/><rect x="1255" y="640" width="18" height="120" fill="#314126"/><circle cx="1390" cy="620" r="55"/><rect x="1435" y="640" width="18" height="120" fill="#314126"/></g></svg>