<svg xmlns="http://www.w3.org/2000/svg" viewBox="0 0 1536 1024"><rect width="1536" height="1024" fill="#dfc9a7"/><rect y="500" width="1536" height="524" fill="#c7b08d"/><rect y="720" width="1536" height="40" fill="#bba68c"/><g fill="#6e8a5a"><circle cx="130" cy="620" r="55"/><rect x="175" y="640" width="18" height="120" fill="#4b3525"/><circle cx="310" cy="620" r="55"/><rect x="355" y="640" width="18" height="120" fill="#4b3525"/><circle cx="490" cy="620" r="55"/><rect x="535" y="640" width="18" height="120" fill="#4b3525"/><circle cx="670" cy="620" r="55"/><rect x="715" y="640" width="18" height="120" fill="#4b3525"/><circle cx="850" cy="620" r="55"/><rect x="895" y="640" width="18" height="120" fill="#4b3525"/><circle cx="1030" cy="620" r="55"/><rect x="1075" y="640" width="18" height="120" fill="#4b3525"/><circle cx="1210" cy="620" r="55"/><rect x="1255" y="640" width="18" height="120" fill="#4b3525"/><circle cx="1390" cy="620" r="55"/><rect x="1435" y="640" width="18" height="120" fill="#4b3525"/></g></svg>